<svg width="48" height="48" viewBox="0 0 48 48" fill="none" xmlns="http://www.w3.org/2000/svg">
<rect width="48" height="48" rx="12" fill="#FADFCC"/>
<path d="M25.2969 9.73438H23.1094C21.9427 9.73438 21.3594 9.23438 21.3594 8.23438C21.3594 7.60938 21.599 7.08333 22.0781 6.65625C22.5573 6.21875 23.1406 6 23.8281 6H30.5938C32.6458 6 34.2292 6.45312 35.3438 7.35938C36.4583 8.25521 37.0156 9.53646 37.0156 11.2031C37.0156 12.6406 36.5938 13.9323 35.75 15.0781C34.9167 16.224 33.7969 17.0417 32.3906 17.5312C34.2969 18.4583 35.25 20.0521 35.25 22.3125C35.25 23.7604 34.8542 25.1823 34.0625 26.5781C33.2812 27.9635 32.2448 29.0729 30.9531 29.9062C29.2135 31.0312 26.5885 31.5938 23.0781 31.5938H20.7812L20.5938 32.0312C19.8646 33.6458 19.2917 34.7865 18.875 35.4531C18.4583 36.1198 17.9219 36.7552 17.2656 37.3594C15.526 38.9531 13.5417 39.75 11.3125 39.75C9.48958 39.75 7.98438 39.2083 6.79688 38.125C5.59896 37.0417 5 35.6615 5 33.9844C5 32.9115 5.25521 31.9115 5.76562 30.9844C6.27604 30.0677 6.96875 29.3542 7.84375 28.8438C8.97917 28.1875 10.5208 27.8594 12.4688 27.8594H17.9219L25.2969 9.73438ZM27.2812 15.5938L28.2188 15.5781C29.6771 15.5781 30.7812 15.2396 31.5312 14.5625C31.9271 14.2083 32.2552 13.75 32.5156 13.1875C32.7865 12.625 32.9219 12.1042 32.9219 11.625C32.9219 10.7604 32.5417 10.1875 31.7812 9.90625C31.4792 9.79167 30.8542 9.73438 29.9062 9.73438H29.6719L27.2812 15.5938ZM22.3125 27.8594H23.5781C25.8073 27.8594 27.5 27.474 28.6562 26.7031C29.3958 26.2135 29.9948 25.5417 30.4531 24.6875C30.9219 23.8333 31.1562 22.974 31.1562 22.1094C31.1562 21.0885 30.849 20.3698 30.2344 19.9531C29.6302 19.5365 28.5729 19.3281 27.0625 19.3281H25.7656L22.3125 27.8594ZM16.4062 31.5938H12.3438C10.3021 31.5938 9.28125 32.3229 9.28125 33.7812C9.28125 34.3646 9.5 34.8594 9.9375 35.2656C10.3854 35.6719 10.9271 35.875 11.5625 35.875C12.5104 35.875 13.4115 35.4948 14.2656 34.7344C15.1198 33.9844 15.8333 32.9375 16.4062 31.5938Z" fill="#8F158F"/>
<path d="M33.8281 30.2812L29.75 40.3125C29.1875 41.6979 28.3646 42.3906 27.2812 42.3906C26.8646 42.3906 26.5104 42.25 26.2188 41.9688C25.9167 41.6979 25.7656 41.3698 25.7656 40.9844C25.7656 40.6615 25.8958 40.1719 26.1562 39.5156L33.6875 20.9531C34.0729 20.0156 34.7396 19.5469 35.6875 19.5469C36.3438 19.5469 36.8646 19.8594 37.25 20.4844C37.9792 19.7135 38.8698 19.3281 39.9219 19.3281C41.0156 19.3281 41.8958 19.7448 42.5625 20.5781C43.2396 21.401 43.5781 22.4896 43.5781 23.8438C43.5781 26.4062 42.7812 28.4948 41.1875 30.1094C40.6667 30.6406 40.1302 31.0052 39.5781 31.2031C39.026 31.401 38.2552 31.5 37.2656 31.5C36.2031 31.5 35.4688 31.4271 35.0625 31.2812C34.6667 31.1354 34.2552 30.8021 33.8281 30.2812ZM35.1094 27.0938C35.3698 27.5521 35.6146 27.849 35.8438 27.9844C36.0833 28.1198 36.4583 28.1875 36.9688 28.1875C37.7083 28.1875 38.2865 27.9115 38.7031 27.3594C39.5469 26.2448 39.9688 25.099 39.9688 23.9219C39.9688 22.9115 39.4896 22.4062 38.5312 22.4062C37.4792 22.4062 36.724 23.0156 36.2656 24.2344C36.2135 24.3698 36.1719 24.4844 36.1406 24.5781L35.1094 27.0938Z" fill="#8F158F"/>
</svg>
