<svg width="176" height="34" viewBox="0 0 176 34" fill="none" xmlns="http://www.w3.org/2000/svg">
<g id="logo-beautypalace">
<g id="Beautypalace">
<path d="M20.2969 3.73438H18.1094C16.9427 3.73438 16.3594 3.23438 16.3594 2.23438C16.3594 1.60938 16.599 1.08333 17.0781 0.65625C17.5573 0.21875 18.1406 0 18.8281 0H25.5938C27.6458 0 29.2292 0.453125 30.3438 1.35938C31.4583 2.25521 32.0156 3.53646 32.0156 5.20312C32.0156 6.64062 31.5938 7.93229 30.75 9.07812C29.9167 10.224 28.7969 11.0417 27.3906 11.5312C29.2969 12.4583 30.25 14.0521 30.25 16.3125C30.25 17.7604 29.8542 19.1823 29.0625 20.5781C28.2812 21.9635 27.2448 23.0729 25.9531 23.9062C24.2135 25.0312 21.5885 25.5938 18.0781 25.5938H15.7812L15.5938 26.0312C14.8646 27.6458 14.2917 28.7865 13.875 29.4531C13.4583 30.1198 12.9219 30.7552 12.2656 31.3594C10.526 32.9531 8.54167 33.75 6.3125 33.75C4.48958 33.75 2.98438 33.2083 1.79688 32.125C0.598958 31.0417 0 29.6615 0 27.9844C0 26.9115 0.255208 25.9115 0.765625 24.9844C1.27604 24.0677 1.96875 23.3542 2.84375 22.8438C3.97917 22.1875 5.52083 21.8594 7.46875 21.8594H12.9219L20.2969 3.73438ZM22.2812 9.59375L23.2188 9.57812C24.6771 9.57812 25.7812 9.23958 26.5312 8.5625C26.9271 8.20833 27.2552 7.75 27.5156 7.1875C27.7865 6.625 27.9219 6.10417 27.9219 5.625C27.9219 4.76042 27.5417 4.1875 26.7812 3.90625C26.4792 3.79167 25.8542 3.73438 24.9062 3.73438H24.6719L22.2812 9.59375ZM17.3125 21.8594H18.5781C20.8073 21.8594 22.5 21.474 23.6562 20.7031C24.3958 20.2135 24.9948 19.5417 25.4531 18.6875C25.9219 17.8333 26.1562 16.974 26.1562 16.1094C26.1562 15.0885 25.849 14.3698 25.2344 13.9531C24.6302 13.5365 23.5729 13.3281 22.0625 13.3281H20.7656L17.3125 21.8594ZM11.4062 25.5938H7.34375C5.30208 25.5938 4.28125 26.3229 4.28125 27.7812C4.28125 28.3646 4.5 28.8594 4.9375 29.2656C5.38542 29.6719 5.92708 29.875 6.5625 29.875C7.51042 29.875 8.41146 29.4948 9.26562 28.7344C10.1198 27.9844 10.8333 26.9375 11.4062 25.5938Z" fill="#8F158F"/>
<path d="M35.7344 16.75C35.7344 17.5312 36.3229 17.9219 37.5 17.9219H42.1406C43.4531 17.9219 44.1094 18.3854 44.1094 19.3125C44.1094 19.9479 43.875 20.4427 43.4062 20.7969C42.9479 21.151 42.3021 21.3281 41.4688 21.3281H37.0469C35.401 21.3281 34.1458 20.9219 33.2812 20.1094C32.4271 19.2969 32 18.1094 32 16.5469C32 14.5365 32.6771 12.8021 34.0312 11.3438C35.3958 9.88542 37.0156 9.15625 38.8906 9.15625C40.2552 9.15625 41.349 9.51562 42.1719 10.2344C43.0052 10.9427 43.4219 11.8802 43.4219 13.0469C43.4219 14.4531 42.849 15.4948 41.7031 16.1719C41.0677 16.5573 40.1198 16.75 38.8594 16.75H35.7344ZM36.4844 13.9062H38.2031C39.3177 13.9062 39.8594 13.6615 39.8281 13.1719C39.7969 12.6198 39.4375 12.3438 38.75 12.3438C37.7917 12.3438 37.0365 12.8646 36.4844 13.9062Z" fill="#8F158F"/>
<path d="M55.375 17.9219H57.0938C58.4062 17.9219 59.0625 18.3802 59.0625 19.2969C59.0625 19.9323 58.8281 20.4323 58.3594 20.7969C57.8906 21.151 57.2448 21.3281 56.4219 21.3281H54.4219C53.526 21.3281 52.9167 20.9792 52.5938 20.2812C51.8125 20.9792 51.0573 21.3281 50.3281 21.3281H48.5469C47.401 21.3281 46.474 20.9219 45.7656 20.1094C45.0677 19.2865 44.7188 18.2135 44.7188 16.8906C44.7188 14.8906 45.4062 13.1042 46.7812 11.5312C48.1667 9.94792 49.7292 9.15625 51.4688 9.15625C52.8021 9.15625 53.776 9.61979 54.3906 10.5469C54.9115 9.76562 55.5938 9.375 56.4375 9.375C56.8958 9.375 57.276 9.52083 57.5781 9.8125C57.8906 10.1042 58.0469 10.4635 58.0469 10.8906C58.0469 11.1823 57.9635 11.5312 57.7969 11.9375L57.625 12.3594L55.375 17.9219ZM49.7031 18H50.0938C50.9479 18 51.5156 17.651 51.7969 16.9531L52.8906 14.25C53.0365 13.8958 53.1094 13.599 53.1094 13.3594C53.1094 13.0781 52.9688 12.8333 52.6875 12.625C52.4167 12.4167 52.0885 12.3125 51.7031 12.3125C50.9427 12.3125 50.2031 12.7552 49.4844 13.6406C48.7656 14.526 48.4062 15.4427 48.4062 16.3906C48.4062 17.4635 48.8385 18 49.7031 18Z" fill="#8F158F"/>
<path d="M70.6875 17.9219H72.5C73.2188 17.9219 73.7292 18.0312 74.0312 18.25C74.3333 18.4583 74.4844 18.8073 74.4844 19.2969C74.4844 19.9323 74.25 20.4323 73.7812 20.7969C73.3229 21.151 72.6771 21.3281 71.8438 21.3281H69.0469C68.1719 21.3281 67.5885 20.9896 67.2969 20.3125C66.724 20.9896 66.0052 21.3281 65.1406 21.3281H62.8594C61.9427 21.3281 61.1823 21.0417 60.5781 20.4688C59.974 19.8958 59.6719 19.1719 59.6719 18.2969C59.6719 17.7969 59.8073 17.2135 60.0781 16.5469L62.2031 11.3281C62.7969 9.88021 63.6094 9.15625 64.6406 9.15625C65.0885 9.15625 65.4688 9.30208 65.7812 9.59375C66.0938 9.875 66.25 10.224 66.25 10.6406C66.25 10.9531 66.1667 11.3125 66 11.7188L64.1875 16.1562L64.0156 16.625C63.9219 16.8958 63.8698 17.099 63.8594 17.2344C63.8385 17.7031 64.1406 17.9375 64.7656 17.9375C66.0573 17.9375 66.9167 17.4167 67.3438 16.375L69.2969 11.5625C69.8802 10.1042 70.7031 9.375 71.7656 9.375C72.2031 9.375 72.5781 9.52083 72.8906 9.8125C73.2031 10.1042 73.3594 10.4531 73.3594 10.8594C73.3594 11.1823 73.224 11.6823 72.9531 12.3594L70.6875 17.9219Z" fill="#8F158F"/>
<path d="M82.8906 9.375H83.375C84.6979 9.375 85.3594 9.83854 85.3594 10.7656C85.3594 11.401 85.125 11.8958 84.6562 12.25C84.1875 12.6042 83.5417 12.7812 82.7188 12.7812H81.5781L79.4844 17.9219H81.2344C82.5573 17.9219 83.2188 18.3854 83.2188 19.3125C83.2188 19.9479 82.9844 20.4427 82.5156 20.7969C82.0573 21.151 81.4115 21.3281 80.5781 21.3281H77.7812C76.9896 21.3281 76.3594 21.1458 75.8906 20.7812C75.4323 20.4167 75.2031 19.9219 75.2031 19.2969C75.2031 18.9115 75.2969 18.4844 75.4844 18.0156L75.7812 17.3281L77.625 12.7812H77.3906C76.224 12.7812 75.6406 12.3281 75.6406 11.4219C75.6406 10.776 75.8698 10.276 76.3281 9.92188C76.7969 9.55729 77.4479 9.375 78.2812 9.375H79L79.8281 7.32812L80 6.90625C80.4896 5.75 81.2604 5.17188 82.3125 5.17188C82.7396 5.17188 83.1042 5.31771 83.4062 5.60938C83.7188 5.89062 83.875 6.23438 83.875 6.64062C83.875 7.03646 83.7396 7.53646 83.4688 8.14062L82.8906 9.375Z" fill="#8F158F"/>
<path d="M93.625 21.9688H95.4375C96.7604 21.9688 97.4219 22.4323 97.4219 23.3594C97.4219 23.9948 97.1875 24.4896 96.7188 24.8438C96.2604 25.1979 95.6146 25.375 94.7812 25.375H92.25C91.9479 26.2708 91.401 27.4583 90.6094 28.9375C89.2344 31.5417 87.2344 32.8438 84.6094 32.8438C83.0156 32.8438 81.6771 32.3438 80.5938 31.3438C79.5104 30.3438 78.9688 29.1042 78.9688 27.625C78.9688 26.5938 79.2656 25.6302 79.8594 24.7344C80.4427 23.849 81.2135 23.1823 82.1719 22.7344C83.276 22.224 84.9062 21.9688 87.0625 21.9688H89.6094L90.0625 20.8438C89.2917 21.1667 88.5833 21.3281 87.9375 21.3281C86.8229 21.3281 85.9167 21.0469 85.2188 20.4844C84.5312 19.9115 84.1875 19.1719 84.1875 18.2656C84.1875 17.7135 84.4115 16.8854 84.8594 15.7812L86.5625 11.5781L86.7344 11.1406C87.2344 9.96354 88.0104 9.375 89.0625 9.375C89.5208 9.375 89.901 9.52083 90.2031 9.8125C90.5156 10.1042 90.6719 10.474 90.6719 10.9219C90.6719 11.224 90.5365 11.7135 90.2656 12.3906L88.7344 16.125C88.4948 16.7292 88.3698 17.1198 88.3594 17.2969C88.3281 17.8073 88.651 18.0625 89.3281 18.0625C89.8073 18.0625 90.2969 17.9219 90.7969 17.6406C91.2969 17.3594 91.6146 17.0417 91.75 16.6875L93.8438 11.5781L94 11.1406C94.4896 9.96354 95.2656 9.375 96.3281 9.375C96.7865 9.375 97.1667 9.52604 97.4688 9.82812C97.7812 10.1198 97.9375 10.4844 97.9375 10.9219C97.9375 11.224 97.8594 11.5729 97.7031 11.9688L97.5156 12.3906L93.625 21.9688ZM88.5156 25.375H86.3281C83.9323 25.375 82.7344 26.125 82.7344 27.625C82.7344 28.1562 82.901 28.5833 83.2344 28.9062C83.5573 29.2292 83.9948 29.3906 84.5469 29.3906C85.3073 29.3906 85.9792 29.0938 86.5625 28.5C87.1562 27.9062 87.8073 26.8646 88.5156 25.375Z" fill="#8F158F"/>
<path d="M101.812 20.1094L97.7344 30.1406C97.1719 31.526 96.349 32.2188 95.2656 32.2188C94.849 32.2188 94.4948 32.0781 94.2031 31.7969C93.901 31.526 93.75 31.1979 93.75 30.8125C93.75 30.4896 93.8802 30 94.1406 29.3438L101.672 10.7812C102.057 9.84375 102.724 9.375 103.672 9.375C104.328 9.375 104.849 9.6875 105.234 10.3125C105.964 9.54167 106.854 9.15625 107.906 9.15625C109 9.15625 109.88 9.57292 110.547 10.4062C111.224 11.2292 111.562 12.3177 111.562 13.6719C111.562 16.2344 110.766 18.3229 109.172 19.9375C108.651 20.4688 108.115 20.8333 107.562 21.0312C107.01 21.2292 106.24 21.3281 105.25 21.3281C104.188 21.3281 103.453 21.2552 103.047 21.1094C102.651 20.9635 102.24 20.6302 101.812 20.1094ZM103.094 16.9219C103.354 17.3802 103.599 17.6771 103.828 17.8125C104.068 17.9479 104.443 18.0156 104.953 18.0156C105.693 18.0156 106.271 17.7396 106.688 17.1875C107.531 16.0729 107.953 14.9271 107.953 13.75C107.953 12.7396 107.474 12.2344 106.516 12.2344C105.464 12.2344 104.708 12.8438 104.25 14.0625C104.198 14.1979 104.156 14.3125 104.125 14.4062L103.094 16.9219Z" fill="#8F158F"/>
<path d="M123.062 17.9219H124.781C126.094 17.9219 126.75 18.3802 126.75 19.2969C126.75 19.9323 126.516 20.4323 126.047 20.7969C125.578 21.151 124.932 21.3281 124.109 21.3281H122.109C121.214 21.3281 120.604 20.9792 120.281 20.2812C119.5 20.9792 118.745 21.3281 118.016 21.3281H116.234C115.089 21.3281 114.161 20.9219 113.453 20.1094C112.755 19.2865 112.406 18.2135 112.406 16.8906C112.406 14.8906 113.094 13.1042 114.469 11.5312C115.854 9.94792 117.417 9.15625 119.156 9.15625C120.49 9.15625 121.464 9.61979 122.078 10.5469C122.599 9.76562 123.281 9.375 124.125 9.375C124.583 9.375 124.964 9.52083 125.266 9.8125C125.578 10.1042 125.734 10.4635 125.734 10.8906C125.734 11.1823 125.651 11.5312 125.484 11.9375L125.312 12.3594L123.062 17.9219ZM117.391 18H117.781C118.635 18 119.203 17.651 119.484 16.9531L120.578 14.25C120.724 13.8958 120.797 13.599 120.797 13.3594C120.797 13.0781 120.656 12.8333 120.375 12.625C120.104 12.4167 119.776 12.3125 119.391 12.3125C118.63 12.3125 117.891 12.7552 117.172 13.6406C116.453 14.526 116.094 15.4427 116.094 16.3906C116.094 17.4635 116.526 18 117.391 18Z" fill="#8F158F"/>
<path d="M131.547 17.9219H133.188C134.51 17.9219 135.172 18.3854 135.172 19.3125C135.172 19.9479 134.938 20.4427 134.469 20.7969C134.01 21.151 133.365 21.3281 132.531 21.3281H129.719C128.948 21.3281 128.339 21.1458 127.891 20.7812C127.443 20.4167 127.219 19.9271 127.219 19.3125C127.219 18.9896 127.37 18.4531 127.672 17.7031L134.156 1.75C134.635 0.583333 135.401 0 136.453 0C136.891 0 137.26 0.145833 137.562 0.4375C137.875 0.729167 138.031 1.07812 138.031 1.48438C138.031 1.79688 137.953 2.15104 137.797 2.54688L131.547 17.9219Z" fill="#8F158F"/>
<path d="M146.531 17.9219H148.25C149.562 17.9219 150.219 18.3802 150.219 19.2969C150.219 19.9323 149.984 20.4323 149.516 20.7969C149.047 21.151 148.401 21.3281 147.578 21.3281H145.578C144.682 21.3281 144.073 20.9792 143.75 20.2812C142.969 20.9792 142.214 21.3281 141.484 21.3281H139.703C138.557 21.3281 137.63 20.9219 136.922 20.1094C136.224 19.2865 135.875 18.2135 135.875 16.8906C135.875 14.8906 136.562 13.1042 137.938 11.5312C139.323 9.94792 140.885 9.15625 142.625 9.15625C143.958 9.15625 144.932 9.61979 145.547 10.5469C146.068 9.76562 146.75 9.375 147.594 9.375C148.052 9.375 148.432 9.52083 148.734 9.8125C149.047 10.1042 149.203 10.4635 149.203 10.8906C149.203 11.1823 149.12 11.5312 148.953 11.9375L148.781 12.3594L146.531 17.9219ZM140.859 18H141.25C142.104 18 142.672 17.651 142.953 16.9531L144.047 14.25C144.193 13.8958 144.266 13.599 144.266 13.3594C144.266 13.0781 144.125 12.8333 143.844 12.625C143.573 12.4167 143.245 12.3125 142.859 12.3125C142.099 12.3125 141.359 12.7552 140.641 13.6406C139.922 14.526 139.562 15.4427 139.562 16.3906C139.562 17.4635 139.995 18 140.859 18Z" fill="#8F158F"/>
<path d="M159.781 21.3281H155.25C153.948 21.3281 152.885 20.8698 152.062 19.9531C151.25 19.0365 150.844 17.849 150.844 16.3906C150.844 14.4427 151.516 12.75 152.859 11.3125C154.203 9.875 155.781 9.15625 157.594 9.15625C158.823 9.15625 159.823 9.5 160.594 10.1875C161.365 10.875 161.75 11.7708 161.75 12.875C161.75 13.6458 161.557 14.2812 161.172 14.7812C160.786 15.2708 160.292 15.5156 159.688 15.5156C158.729 15.5156 158.25 15.0677 158.25 14.1719C158.25 14.0365 158.25 13.9219 158.25 13.8281C158.26 13.7135 158.266 13.6042 158.266 13.5C158.266 12.7708 157.906 12.4062 157.188 12.4062C156.51 12.4062 155.891 12.7656 155.328 13.4844C154.776 14.2031 154.5 15.0052 154.5 15.8906C154.5 16.6302 154.724 17.1562 155.172 17.4688C155.63 17.7708 156.401 17.9219 157.484 17.9219H160.438C161.76 17.9219 162.422 18.3854 162.422 19.3125C162.422 19.9375 162.182 20.4323 161.703 20.7969C161.234 21.151 160.594 21.3281 159.781 21.3281Z" fill="#8F158F"/>
<path d="M166.766 16.75C166.766 17.5312 167.354 17.9219 168.531 17.9219H173.172C174.484 17.9219 175.141 18.3854 175.141 19.3125C175.141 19.9479 174.906 20.4427 174.438 20.7969C173.979 21.151 173.333 21.3281 172.5 21.3281H168.078C166.432 21.3281 165.177 20.9219 164.312 20.1094C163.458 19.2969 163.031 18.1094 163.031 16.5469C163.031 14.5365 163.708 12.8021 165.062 11.3438C166.427 9.88542 168.047 9.15625 169.922 9.15625C171.286 9.15625 172.38 9.51562 173.203 10.2344C174.036 10.9427 174.453 11.8802 174.453 13.0469C174.453 14.4531 173.88 15.4948 172.734 16.1719C172.099 16.5573 171.151 16.75 169.891 16.75H166.766ZM167.516 13.9062H169.234C170.349 13.9062 170.891 13.6615 170.859 13.1719C170.828 12.6198 170.469 12.3438 169.781 12.3438C168.823 12.3438 168.068 12.8646 167.516 13.9062Z" fill="#8F158F"/>
</g>
</g>
</svg>

